<svg xmlns="http://www.w3.org/2000/svg" xmlns:xlink="http://www.w3.org/1999/xlink" version="1.1" x="0px" y="0px"
  viewBox="0 0 100 125" style="enable-background:new 0 0 100 100;" xml:space="preserve">
  <path
    d="M49.9967537,93.5648651c-0.6731606,0-1.3463211-0.1979294-1.9281654-0.5937958  C6.7576728,64.8584976,0.6973168,42.7780724,2.8874786,29.2053795C4.7989097,17.362442,13.6685629,9.7788687,21.611187,7.5160365  c13.7390671-3.9356933,23.777668,3.7913079,28.387001,8.52351c4.6131554-4.731246,14.6574898-12.4596825,28.4013405-8.5220757  c7.9368896,2.2623544,16.8041534,9.8478394,18.7136688,21.6912537c2.1882477,13.5736504-3.8749695,35.6540756-45.1887589,63.7623444  C51.3430748,93.3669357,50.6699142,93.5648651,49.9967537,93.5648651z M29.0035191,13.3139172  c-1.7388382,0-3.5780754,0.2395267-5.5100651,0.7926846c-5.8595562,1.6690359-12.4080486,7.3220539-13.8394709,16.1907501  c-1.508873,9.3496628,1.809597,28.9023895,40.3427696,55.6815529  c38.5365181-26.7753372,41.8573799-46.3285446,40.3499413-55.6791611  c-1.4304657-8.8696537-7.9765701-14.5231495-13.8299103-16.1921844c-14.0981178-4.0346594-23.3387756,8.6267805-23.7250786,9.167985  c-0.6454277,0.9036026-1.6915054,1.4142113-2.8035583,1.4395504c-1.1106186-0.0038242-2.1538277-0.5412064-2.7935219-1.4495907  C46.8666534,22.8060532,39.9485931,13.3139172,29.0035191,13.3139172z" />
</svg>