<svg xmlns="http://www.w3.org/2000/svg" viewBox="0 0 97.78 74.1"><path d="M97.29 10.67a35.83 35.83 0 0 1-8-1.22.41.41 0 0 0-.43.66l1.89 2.27-8 2.91a19.74 19.74 0 0 0-34.12-8.57 19.73 19.73 0 0 0-34.57 13c0 5.86 1.42 11.13 7.34 17.81l-8.25 3-4.44-.83a9.06 9.06 0 0 0-4.92.38l-3 1.09a1.18 1.18 0 0 0-.1 2.18L4.21 45l-1.65 3.52A1.18 1.18 0 0 0 4 50.13l3-1.09a9.19 9.19 0 0 0 4-2.86l2.84-3.53L23 39.34c5.21 5.38 13.26 11.71 25.6 19.94 29.67-19.76 34.61-28.61 34.61-39.52a18.62 18.62 0 0 0-.13-2.25l8.39-3.05v3a.42.42 0 0 0 .76.23 35.65 35.65 0 0 1 5.38-6.1.5.5 0 0 0-.32-.92Z"/></svg>